# xmcd CD database file
#
# Track frame offsets:
#	150
#	17474
#	29275
#	41023
#	51924
#	68656
#	79516
#	93344
#	108491
#	123372
#	138903
#	153517
#	167316
#	181272
#	197852
#	215210
#
# Disc length: 3075 seconds
#
# Revision: 0
# Processed by: cddbd v1.5.2PL0 Copyright (c) Steve Scherf et al.
# Submitted via: CDex 1.50beta8
#
DISCID=d00c0110
DTITLE=Dizzy Gillespie - Jazz in Paris
DYEAR=1952
DGENRE=Jazz
TTITLE0=Stormy weather
TTITLE1=The very thought of you
TTITLE2=Jalousie
TTITLE3=I've got you under my skin
TTITLE4=Fine and dandy
TTITLE5=Pennies from heaven
TTITLE6=Night and day
TTITLE7=My old flame
TTITLE8=I waited for you
TTITLE9=Sweet and lovely
TTITLE10=The man I love
TTITLE11=Ghost of a chance
TTITLE12=Night and day (alternate)
TTITLE13=My old flame (alternate)
TTITLE14=Sweet and lovely (alternate 1)
TTITLE15=Sweet and lovely (alternate 2)
EXTD=YEAR: 1952
EXTT0=
EXTT1=
EXTT2=
EXTT3=
EXTT4=
EXTT5=
EXTT6=
EXTT7=
EXTT8=
EXTT9=
EXTT10=
EXTT11=
EXTT12=
EXTT13=
EXTT14=
EXTT15=
PLAYORDER=
